<?xml version="1.0" encoding="UTF-8"?>
<svg id="Layer_1" data-name="Layer 1" xmlns="http://www.w3.org/2000/svg" viewBox="0 0 666.67 666.67">
  <defs>
    <style>
      .cls-1 {
        fill: #d1d1d1;
        isolation: isolate;
        opacity: .4;
      }

      .cls-2 {
        fill: #292d32;
      }
    </style>
  </defs>
  <path class="cls-1" d="M333.33,666.67c184.09,0,333.33-149.24,333.33-333.33S517.43,0,333.33,0,0,149.24,0,333.33s149.24,333.33,333.33,333.33Z"/>
  <path class="cls-2" d="M375.33,476.01c-6.33,0-12.67-2.33-17.67-7.33l-117.67-117.67c-9.67-9.67-9.67-25.67,0-35.33l117.67-117.67c9.67-9.67,25.67-9.67,35.33,0s9.67,25.67,0,35.33l-100,100,100,100c9.67,9.67,9.67,25.67,0,35.33-4.67,5-11,7.33-17.67,7.33Z"/>
</svg>